<svg width="25" height="25" viewBox="0 0 25 25" fill="none" xmlns="http://www.w3.org/2000/svg">
<g clip-path="url(#clip0_4_347)">
<path d="M12.4999 0.0442505C9.74359 0.0472829 7.10102 1.1435 5.15192 3.09241C3.20281 5.04132 2.10634 7.68377 2.10303 10.4401C2.10303 13.1172 4.17594 17.3068 8.26449 22.8922C8.75121 23.559 9.3885 24.1014 10.1245 24.4754C10.8605 24.8494 11.6744 25.0443 12.4999 25.0443C13.3255 25.0443 14.1393 24.8494 14.8753 24.4754C15.6113 24.1014 16.2486 23.559 16.7353 22.8922C20.8239 17.3068 22.8968 13.1172 22.8968 10.4401C22.8935 7.68377 21.797 5.04132 19.8479 3.09241C17.8988 1.1435 15.2562 0.0472829 12.4999 0.0442505V0.0442505ZM12.4999 14.5838C11.6758 14.5838 10.8702 14.3395 10.185 13.8816C9.49982 13.4238 8.96577 12.773 8.6504 12.0117C8.33504 11.2503 8.25253 10.4125 8.4133 9.60429C8.57407 8.79604 8.97091 8.05361 9.55362 7.47089C10.1363 6.88817 10.8788 6.49133 11.687 6.33056C12.4953 6.16979 13.3331 6.2523 14.0944 6.56767C14.8558 6.88304 15.5065 7.41709 15.9644 8.10229C16.4222 8.7875 16.6666 9.59308 16.6666 10.4172C16.6666 11.5222 16.2276 12.582 15.4462 13.3634C14.6648 14.1448 13.605 14.5838 12.4999 14.5838Z" fill="#7C8892"/>
</g>
<defs>
<clipPath id="clip0_4_347">
<rect width="25" height="25" fill="white"/>
</clipPath>
</defs>
</svg>
