<svg width="26" height="26" viewBox="0 0 26 26" fill="none" xmlns="http://www.w3.org/2000/svg">
<g clip-path="url(#clip0_4_375)">
<path d="M13 16.2411C11.2051 16.2411 9.75 17.6962 9.75 19.4911V25.9911H16.25V19.4911C16.25 17.6962 14.7949 16.2411 13 16.2411Z" fill="#374957"/>
<path d="M18.4167 19.4916V25.9916H22.75C24.5449 25.9916 26 24.5365 26 22.7416V12.8605C26.0003 12.2977 25.7815 11.7569 25.3901 11.3525L16.1839 1.39988C14.5595 -0.35766 11.818 -0.46557 10.0604 1.15882C9.97694 1.23601 9.8965 1.31639 9.81937 1.39988L0.629434 11.3492C0.226129 11.7553 -0.000152267 12.3044 7.68741e-08 12.8767V22.7416C7.68741e-08 24.5365 1.45509 25.9916 3.25 25.9916H7.58332V19.4916C7.60358 16.5375 9.98862 14.1252 12.8683 14.0557C15.8443 13.9839 18.394 16.4373 18.4167 19.4916Z" fill="#374957"/>
<path d="M13 16.2411C11.2051 16.2411 9.75 17.6962 9.75 19.4911V25.9911H16.25V19.4911C16.25 17.6962 14.7949 16.2411 13 16.2411Z" fill="#374957"/>
</g>
<defs>
<clipPath id="clip0_4_375">
<rect width="26" height="26" fill="white"/>
</clipPath>
</defs>
</svg>
